<svg width="414" height="179" viewBox="0 0 414 179" fill="none" xmlns="http://www.w3.org/2000/svg">
<path d="M414 0H0V179H414V0Z" fill="white"/>
<path d="M43 54.1024C46.3214 54.1024 49.5054 54.1149 52.6894 54.0974C53.8977 54.0898 55.1267 54.1299 56.3116 53.9447C57.5588 53.752 58.7541 53.2791 59.9909 52.9963C61.4117 52.671 62.8456 52.223 64.2846 52.1705C68.5887 52.0128 72.9006 51.9828 77.2099 52.0078C78.0163 52.0128 78.8071 52.5458 79.6238 52.7661C80.9047 53.1114 82.1856 53.5393 83.4949 53.6895C97.0658 55.241 110.686 55.9516 124.353 55.7439C125.807 55.7214 127.135 55.4437 128.527 54.7855C129.743 54.21 131.405 54.5153 132.904 54.4302C132.943 55.0508 132.969 55.296 132.969 55.5412C132.969 73.346 132.948 91.1507 133 108.955C133.003 110.177 132.562 110.772 131.447 110.925C128.545 111.323 125.636 111.928 122.727 111.958C114.567 112.038 106.4 112.023 98.2482 111.731C94.6519 111.6 91.0945 110.647 87.5061 110.177C79.8805 109.181 72.2265 108.3 64.5257 109.093C61.2821 109.426 58.0955 110.277 54.8856 110.897C51.9505 111.465 49.0076 111.856 46.0181 111.318C45.681 111.258 45.3439 111.178 45.0146 111.077C43.0856 110.497 43 110.379 43 108.482V54.0999V54.1024ZM96.9025 87.5597C99.9283 86.9992 101.598 85.1524 102.34 82.5474C103.514 78.4309 101.64 75.1427 98.8782 72.2424C97.1073 70.3831 94.7945 69.6824 92.1809 69.9627C90.6875 70.1229 90.1093 70.791 90.6927 72.1523C91.1516 73.2259 91.9165 74.2493 92.7669 75.0826C94.39 76.6717 95.6164 78.3959 95.912 80.6655C96.205 82.9227 96.5577 85.1724 96.9051 87.5597H96.9025ZM78.1381 79.9248C78.1667 80.2627 78.19 80.7206 78.247 81.176C78.6982 84.8146 80.7388 87.3695 83.9798 88.1228C84.6669 88.2829 85.844 88.1453 86.1656 87.7099C86.6323 87.0818 86.7101 86.0332 86.6012 85.2074C86.526 84.6369 85.8752 84.1239 85.4499 83.6084C85.0481 83.1229 84.545 82.7075 84.195 82.1945C82.7067 80.0224 82.8623 75.6582 86.1111 74.6122C87.086 74.2994 87.8872 73.5437 87.532 72.4026C87.1612 71.2039 85.9944 71.5092 85.1103 71.5517C81.2081 71.7369 77.9307 75.6482 78.1381 79.9273V79.9248ZM84.4673 78.9389C84.4673 81.6915 87.1768 84.2415 90.0911 84.2215C92.658 84.204 94.5586 82.4873 94.5664 80.1826C94.5741 77.4124 91.8153 74.8975 88.7817 74.91C86.2978 74.92 84.4698 76.6266 84.4673 78.9389ZM84.348 90.9305C84.3713 90.8054 84.3921 90.6802 84.4154 90.5551C83.9461 90.2899 83.469 90.0396 83.0101 89.7594C78.8771 87.2519 76.0924 83.9262 75.9109 78.9789C75.8901 78.4159 75.5738 77.8653 75.3949 77.3073C74.7623 77.4975 74.0648 77.5851 73.5151 77.9054C73.0225 78.1907 72.6232 78.6911 72.2965 79.1716C70.0614 82.4373 72.2861 88.5932 76.1805 89.7218C78.1096 90.2798 80.1268 90.5751 82.1181 90.913C82.8415 91.0356 83.6064 90.933 84.3506 90.933L84.348 90.9305ZM88.8543 91.416C88.8284 91.5511 88.8051 91.6862 88.7791 91.8188C89.6996 92.2267 90.5838 92.7623 91.5457 93.0225C97.7063 94.6816 105.202 89.8745 106.527 83.4482C106.667 82.7726 106.716 82.0794 106.807 81.3938C106.693 81.3762 106.582 81.3562 106.467 81.3387C106.229 81.8142 106.003 82.2946 105.747 82.7601C103.776 86.326 100.965 88.6258 96.5214 88.4931C96.2387 88.4856 95.8887 88.5307 95.6735 88.6858C93.6459 90.1522 91.4394 91.2057 88.8543 91.4134V91.416ZM95.0979 82.8377C93.2803 85.1149 90.9027 85.6504 88.1206 85.25C88.2554 87.0592 88.1309 88.6583 85.8259 89.3765C88.678 90.1923 91.0375 89.7318 93.2233 88.6758C95.2016 87.7199 96.1013 84.8521 95.0953 82.8377H95.0979Z" fill="black"/>
<path d="M34.7993 92.8583C34.7993 80.5747 34.8042 68.2911 34.782 56.0074C34.782 55.4029 34.5777 54.778 34.3758 54.1965C34.0164 53.161 33.4895 52.179 33.2089 51.1231C32.9036 49.9702 32.7583 48.8275 34.0459 47.9909C34.8805 47.4477 35.4788 46.078 36.2641 46.004C37.084 45.9275 38.0023 46.958 38.8713 47.514C39.3908 47.8456 39.994 48.1057 40.3879 48.5572C41.1733 49.4626 41.2126 50.618 40.4494 51.4725C38.3149 53.8598 38.182 56.6884 38.1894 59.7338C38.2583 83.11 38.2362 106.489 38.2411 129.865C38.2411 131.614 37.9112 132.015 36.4906 132C35.3335 131.987 34.8042 131.283 34.8017 129.709C34.8017 120.953 34.8017 112.197 34.8017 103.441V92.8557L34.7993 92.8583Z" fill="black"/>
<path d="M158.057 113V54.8182H181.011C185.405 54.8182 189.155 55.6042 192.261 57.1761C195.386 58.7292 197.763 60.9356 199.392 63.7955C201.04 66.6364 201.864 69.9792 201.864 73.8239C201.864 77.6875 201.03 81.0114 199.364 83.7955C197.697 86.5606 195.282 88.6818 192.119 90.1591C188.975 91.6364 185.169 92.375 180.699 92.375H165.33V82.4886H178.71C181.059 82.4886 183.009 82.1667 184.562 81.5227C186.116 80.8788 187.271 79.9129 188.028 78.625C188.805 77.3371 189.193 75.7367 189.193 73.8239C189.193 71.892 188.805 70.2633 188.028 68.9375C187.271 67.6117 186.106 66.608 184.534 65.9261C182.981 65.2254 181.021 64.875 178.653 64.875H170.358V113H158.057ZM189.477 86.5227L203.938 113H190.358L176.21 86.5227H189.477ZM264.023 83.9091C264.023 90.2538 262.82 95.6515 260.415 100.102C258.028 104.553 254.771 107.953 250.642 110.301C246.532 112.631 241.911 113.795 236.778 113.795C231.608 113.795 226.968 112.621 222.858 110.273C218.748 107.924 215.5 104.525 213.114 100.074C210.727 95.6231 209.534 90.2348 209.534 83.9091C209.534 77.5644 210.727 72.1667 213.114 67.7159C215.5 63.2652 218.748 59.875 222.858 57.5455C226.968 55.197 231.608 54.0227 236.778 54.0227C241.911 54.0227 246.532 55.197 250.642 57.5455C254.771 59.875 258.028 63.2652 260.415 67.7159C262.82 72.1667 264.023 77.5644 264.023 83.9091ZM251.551 83.9091C251.551 79.7992 250.936 76.3333 249.705 73.5114C248.492 70.6894 246.778 68.5492 244.562 67.0909C242.347 65.6326 239.752 64.9034 236.778 64.9034C233.805 64.9034 231.21 65.6326 228.994 67.0909C226.778 68.5492 225.055 70.6894 223.824 73.5114C222.612 76.3333 222.006 79.7992 222.006 83.9091C222.006 88.0189 222.612 91.4848 223.824 94.3068C225.055 97.1288 226.778 99.2689 228.994 100.727C231.21 102.186 233.805 102.915 236.778 102.915C239.752 102.915 242.347 102.186 244.562 100.727C246.778 99.2689 248.492 97.1288 249.705 94.3068C250.936 91.4848 251.551 88.0189 251.551 83.9091ZM272.51 113V105.699L301.544 64.9602H272.453V54.8182H316.999V62.1193L287.936 102.858H317.055V113H272.51ZM377.226 83.9091C377.226 90.2538 376.023 95.6515 373.618 100.102C371.232 104.553 367.974 107.953 363.845 110.301C359.735 112.631 355.114 113.795 349.982 113.795C344.811 113.795 340.171 112.621 336.061 110.273C331.951 107.924 328.703 104.525 326.317 100.074C323.93 95.6231 322.737 90.2348 322.737 83.9091C322.737 77.5644 323.93 72.1667 326.317 67.7159C328.703 63.2652 331.951 59.875 336.061 57.5455C340.171 55.197 344.811 54.0227 349.982 54.0227C355.114 54.0227 359.735 55.197 363.845 57.5455C367.974 59.875 371.232 63.2652 373.618 67.7159C376.023 72.1667 377.226 77.5644 377.226 83.9091ZM364.754 83.9091C364.754 79.7992 364.139 76.3333 362.908 73.5114C361.696 70.6894 359.982 68.5492 357.766 67.0909C355.55 65.6326 352.955 64.9034 349.982 64.9034C347.008 64.9034 344.413 65.6326 342.197 67.0909C339.982 68.5492 338.258 70.6894 337.027 73.5114C335.815 76.3333 335.209 79.7992 335.209 83.9091C335.209 88.0189 335.815 91.4848 337.027 94.3068C338.258 97.1288 339.982 99.2689 342.197 100.727C344.413 102.186 347.008 102.915 349.982 102.915C352.955 102.915 355.55 102.186 357.766 100.727C359.982 99.2689 361.696 97.1288 362.908 94.3068C364.139 91.4848 364.754 88.0189 364.754 83.9091Z" fill="black"/>
</svg>
