<svg width="667" height="627" viewBox="0 0 667 627" fill="none" xmlns="http://www.w3.org/2000/svg">
<g clip-path="url(#clip0_1_25)">
<path d="M667.47 -0.0900269H-2V629.76H667.47V-0.0900269Z" fill="black"/>
<path d="M219.3 144.93C228.7 144.93 237.71 144.965 246.721 144.916C250.141 144.894 253.619 145.008 256.972 144.484C260.501 143.938 263.884 142.6 267.384 141.8C271.405 140.879 275.463 139.611 279.535 139.463C291.716 139.016 303.919 138.931 316.114 139.002C318.396 139.016 320.634 140.525 322.945 141.148C326.57 142.125 330.195 143.336 333.901 143.761C372.306 148.152 410.851 150.163 449.529 149.575C453.644 149.512 457.402 148.726 461.341 146.863C464.783 145.234 469.486 146.098 473.728 145.858C473.839 147.614 473.912 148.308 473.912 149.002C473.912 199.389 473.853 249.777 474 300.163C474.008 303.621 472.76 305.305 469.605 305.738C461.392 306.864 453.16 308.576 444.927 308.661C421.835 308.888 398.722 308.845 375.652 308.019C365.475 307.648 355.407 304.951 345.252 303.621C323.672 300.802 302.011 298.309 280.218 300.553C271.038 301.496 262.02 303.904 252.936 305.659C244.63 307.266 236.302 308.373 227.841 306.85C226.887 306.68 225.933 306.454 225.001 306.168C219.542 304.527 219.3 304.193 219.3 298.824V144.923V144.93ZM371.844 239.614C380.407 238.028 385.132 232.801 387.232 225.429C390.555 213.78 385.251 204.474 377.435 196.266C372.424 191.004 365.878 189.021 358.482 189.815C354.256 190.268 352.619 192.159 354.27 196.011C355.569 199.049 357.734 201.946 360.14 204.304C364.734 208.801 368.204 213.68 369.041 220.103C369.87 226.491 370.868 232.858 371.851 239.614H371.844ZM318.741 218.007C318.822 218.964 318.888 220.259 319.049 221.548C320.326 231.845 326.101 239.076 335.273 241.208C337.217 241.661 340.549 241.271 341.459 240.039C342.779 238.262 343 235.294 342.691 232.957C342.479 231.342 340.637 229.891 339.433 228.432C338.296 227.058 336.872 225.882 335.882 224.431C331.67 218.283 332.11 205.933 341.304 202.973C344.063 202.087 346.331 199.949 345.326 196.719C344.276 193.327 340.974 194.191 338.472 194.311C327.429 194.835 318.154 205.904 318.741 218.014V218.007ZM336.652 215.217C336.652 223.007 344.32 230.224 352.568 230.167C359.832 230.117 365.211 225.259 365.233 218.737C365.255 210.897 357.447 203.78 348.862 203.815C341.833 203.844 336.66 208.673 336.652 215.217ZM336.315 249.153C336.381 248.799 336.44 248.445 336.506 248.091C335.177 247.34 333.827 246.632 332.529 245.839C320.832 238.743 312.951 229.331 312.438 215.33C312.379 213.737 311.484 212.179 310.978 210.6C309.187 211.138 307.213 211.386 305.658 212.292C304.264 213.1 303.134 214.516 302.209 215.876C295.884 225.118 302.18 242.539 313.201 245.733C318.66 247.312 324.369 248.148 330.004 249.104C332.051 249.451 334.216 249.16 336.322 249.16L336.315 249.153ZM349.068 250.527C348.994 250.91 348.928 251.292 348.855 251.667C351.46 252.822 353.962 254.337 356.684 255.074C374.119 259.769 395.332 246.165 399.081 227.978C399.478 226.067 399.616 224.105 399.874 222.165C399.551 222.115 399.237 222.058 398.912 222.009C398.238 223.354 397.598 224.714 396.874 226.031C391.296 236.123 383.341 242.631 370.766 242.256C369.966 242.234 368.975 242.362 368.366 242.801C362.628 246.951 356.383 249.932 349.068 250.52V250.527ZM366.737 226.251C361.593 232.695 354.865 234.211 346.991 233.078C347.373 238.198 347.02 242.723 340.497 244.756C348.569 247.064 355.246 245.761 361.432 242.773C367.031 240.067 369.577 231.952 366.73 226.251H366.737Z" fill="white"/>
<path d="M196.092 254.609C196.092 219.846 196.106 185.084 196.043 150.321C196.043 148.61 195.465 146.842 194.893 145.196C193.876 142.266 192.385 139.487 191.591 136.498C190.727 133.236 190.316 130.002 193.96 127.634C196.322 126.097 198.015 122.221 200.237 122.011C202.558 121.795 205.156 124.711 207.616 126.285C209.086 127.223 210.793 127.959 211.908 129.237C214.13 131.799 214.242 135.069 212.082 137.487C206.041 144.243 205.665 152.248 205.686 160.867C205.881 227.021 205.818 293.184 205.832 359.338C205.832 364.288 204.899 365.423 200.878 365.38C197.604 365.343 196.106 363.351 196.099 358.897C196.099 334.117 196.099 309.338 196.099 284.558V254.602L196.092 254.609Z" fill="white"/>
<path d="M190 504.963V429.038H219.849C225.562 429.038 230.439 430.064 234.478 432.115C238.541 434.142 241.632 437.021 243.751 440.753C245.894 444.46 246.965 448.822 246.965 453.84C246.965 458.881 245.881 463.219 243.714 466.852C241.547 470.46 238.406 473.228 234.293 475.156C230.205 477.084 225.256 478.048 219.443 478.048H199.458V465.147H216.856C219.911 465.147 222.447 464.727 224.466 463.886C226.487 463.046 227.989 461.785 228.973 460.105C229.984 458.424 230.488 456.336 230.488 453.84C230.488 451.319 229.984 449.193 228.973 447.463C227.989 445.733 226.474 444.423 224.43 443.533C222.41 442.619 219.862 442.162 216.782 442.162H205.996V504.963H190ZM230.858 470.411L249.662 504.963H232.003L213.606 470.411H230.858ZM327.795 467C327.795 475.28 326.23 482.324 323.103 488.131C319.999 493.94 315.764 498.376 310.394 501.441C305.05 504.481 299.041 506 292.366 506C285.643 506 279.61 504.468 274.265 501.404C268.921 498.339 264.697 493.903 261.594 488.095C258.49 482.287 256.939 475.255 256.939 467C256.939 458.721 258.49 451.677 261.594 445.869C264.697 440.061 268.921 435.637 274.265 432.597C279.61 429.532 285.643 428 292.366 428C299.041 428 305.05 429.532 310.394 432.597C315.764 435.637 319.999 440.061 323.103 445.869C326.23 451.677 327.795 458.721 327.795 467ZM311.576 467C311.576 461.637 310.777 457.114 309.176 453.432C307.599 449.749 305.37 446.956 302.488 445.053C299.608 443.15 296.233 442.199 292.366 442.199C288.5 442.199 285.126 443.15 282.244 445.053C279.362 446.956 277.122 449.749 275.521 453.432C273.945 457.114 273.157 461.637 273.157 467C273.157 472.363 273.945 476.886 275.521 480.569C277.122 484.251 279.362 487.044 282.244 488.947C285.126 490.851 288.5 491.802 292.366 491.802C296.233 491.802 299.608 490.851 302.488 488.947C305.37 487.044 307.599 484.251 309.176 480.569C310.777 476.886 311.576 472.363 311.576 467ZM338.831 504.963V495.435L376.586 442.273H338.757V429.038H396.683V438.566L358.89 491.728H396.756V504.963H338.831ZM475 467C475 475.28 473.436 482.324 470.308 488.131C467.206 493.94 462.969 498.376 457.6 501.441C452.255 504.481 446.246 506 439.573 506C432.849 506 426.815 504.468 421.47 501.404C416.126 498.339 411.902 493.903 408.8 488.095C405.696 482.287 404.144 475.255 404.144 467C404.144 458.721 405.696 451.677 408.8 445.869C411.902 440.061 416.126 435.637 421.47 432.597C426.815 429.532 432.849 428 439.573 428C446.246 428 452.255 429.532 457.6 432.597C462.969 435.637 467.206 440.061 470.308 445.869C473.436 451.677 475 458.721 475 467ZM458.782 467C458.782 461.637 457.982 457.114 456.381 453.432C454.805 449.749 452.576 446.956 449.695 445.053C446.813 443.15 443.439 442.199 439.573 442.199C435.706 442.199 432.331 443.15 429.449 445.053C426.569 446.956 424.327 449.749 422.727 453.432C421.151 457.114 420.363 461.637 420.363 467C420.363 472.363 421.151 476.886 422.727 480.569C424.327 484.251 426.569 487.044 429.449 488.947C432.331 490.851 435.706 491.802 439.573 491.802C443.439 491.802 446.813 490.851 449.695 488.947C452.576 487.044 454.805 484.251 456.381 480.569C457.982 476.886 458.782 472.363 458.782 467Z" fill="white"/>
</g>
<defs>
<clipPath id="clip0_1_25">
<rect width="667" height="627" fill="white"/>
</clipPath>
</defs>
</svg>
